<svg width="164" height="30" viewBox="0 0 164 30" fill="none" xmlns="http://www.w3.org/2000/svg">
<path d="M0.151855 22.8729V1.05469H4.00839V9.2152H4.16819C4.36705 8.81747 4.64759 8.39489 5.00981 7.94744C5.37203 7.4929 5.86208 7.10582 6.47998 6.78622C7.09788 6.45952 7.88623 6.29617 8.84504 6.29617C10.1092 6.29617 11.2492 6.61932 12.2648 7.26563C13.2875 7.90483 14.0972 8.85298 14.6938 10.1101C15.2975 11.3601 15.5993 12.8942 15.5993 14.7124C15.5993 16.5092 15.3046 18.0362 14.7151 19.2933C14.1256 20.5504 13.323 21.5092 12.3074 22.1697C11.2918 22.8303 10.1412 23.1605 8.85569 23.1605C7.91819 23.1605 7.14049 23.0043 6.52259 22.6918C5.9047 22.3793 5.40754 22.0028 5.03112 21.5625C4.6618 21.1151 4.37416 20.6925 4.16819 20.2947H3.94447V22.8729H0.151855ZM3.93382 14.6911C3.93382 15.7493 4.08296 16.6761 4.38126 17.4716C4.68666 18.267 5.12345 18.8885 5.69163 19.3359C6.26691 19.7763 6.96294 19.9964 7.7797 19.9964C8.63197 19.9964 9.34575 19.7692 9.92103 19.3146C10.4963 18.853 10.9296 18.2244 11.2207 17.429C11.519 16.6264 11.6682 15.7138 11.6682 14.6911C11.6682 13.6754 11.5226 12.7734 11.2314 11.9851C10.9402 11.1967 10.507 10.5788 9.93168 10.1314C9.3564 9.68395 8.63907 9.46023 7.7797 9.46023C6.95583 9.46023 6.25626 9.67685 5.68097 10.1101C5.10569 10.5433 4.6689 11.1506 4.37061 11.9318C4.07941 12.7131 3.93382 13.6328 3.93382 14.6911Z" fill="white"/>
<path d="M24.9222 23.1925C23.2816 23.1925 21.8647 22.8516 20.6715 22.1697C19.4854 21.4808 18.5728 20.5078 17.9336 19.2507C17.2944 17.9865 16.9748 16.4986 16.9748 14.7869C16.9748 13.1037 17.2944 11.6264 17.9336 10.3551C18.5799 9.0767 19.4819 8.08239 20.6395 7.37216C21.7972 6.65483 23.1573 6.29617 24.7198 6.29617C25.7283 6.29617 26.68 6.45952 27.5749 6.78622C28.4769 7.10582 29.2723 7.60298 29.9613 8.2777C30.6573 8.95241 31.2042 9.81179 31.6019 10.8558C31.9996 11.8928 32.1985 13.1286 32.1985 14.5632V15.7457H18.7858V13.1463H28.5017C28.4946 12.4077 28.3348 11.7507 28.0223 11.1754C27.7098 10.593 27.2731 10.1349 26.712 9.80114C26.158 9.46733 25.5117 9.30043 24.7731 9.30043C23.9847 9.30043 23.2922 9.49219 22.6956 9.87571C22.099 10.2521 21.6338 10.7493 21.3 11.3672C20.9733 11.978 20.8064 12.6491 20.7993 13.3807V15.6499C20.7993 16.6016 20.9733 17.4183 21.3214 18.1001C21.6694 18.7749 22.1559 19.2933 22.7809 19.6555C23.4059 20.0107 24.1374 20.1882 24.9755 20.1882C25.5365 20.1882 26.0444 20.1101 26.4989 19.9538C26.9535 19.7905 27.3476 19.5526 27.6814 19.2401C28.0152 18.9276 28.2674 18.5405 28.4378 18.0788L32.0387 18.4837C31.8114 19.4354 31.3782 20.2663 30.739 20.9766C30.1069 21.6797 29.2972 22.2266 28.31 22.6172C27.3228 23.0007 26.1935 23.1925 24.9222 23.1925Z" fill="white"/>
<path d="M48.4088 6.50923L42.5814 22.8729H38.32L32.4926 6.50923H36.6048L40.3655 18.6648H40.5359L44.3073 6.50923H48.4088Z" fill="white"/>
<path d="M52.2745 29.0092C51.7489 29.0092 51.2624 28.9666 50.815 28.8814C50.3747 28.8033 50.0231 28.7109 49.7603 28.6044L50.6552 25.6001C51.2163 25.7635 51.717 25.8416 52.1573 25.8345C52.5977 25.8274 52.9847 25.6889 53.3185 25.419C53.6595 25.1563 53.9471 24.7159 54.1815 24.098L54.5117 23.2138L48.5778 6.50923H52.6687L56.44 18.8672H56.6105L60.3924 6.50923H64.494L57.9421 24.8544C57.6367 25.7209 57.2319 26.4631 56.7276 27.081C56.2234 27.706 55.6055 28.1818 54.8739 28.5085C54.1495 28.8423 53.283 29.0092 52.2745 29.0092Z" fill="white"/>
<path d="M75.6812 22.8729V25.9517H61.5868V22.8729H75.6812Z" fill="white"/>
<path d="M82.4953 23.1605C81.2097 23.1605 80.0592 22.8303 79.0435 22.1697C78.0279 21.5092 77.2254 20.5504 76.6359 19.2933C76.0464 18.0362 75.7516 16.5092 75.7516 14.7124C75.7516 12.8942 76.0499 11.3601 76.6465 10.1101C77.2502 8.85298 78.0634 7.90483 79.0862 7.26563C80.1089 6.61932 81.2488 6.29617 82.5059 6.29617C83.4647 6.29617 84.2531 6.45952 84.871 6.78622C85.4889 7.10582 85.9789 7.4929 86.3411 7.94744C86.7033 8.39489 86.9839 8.81747 87.1828 9.2152H87.3426V1.05469H91.2097V22.8729H87.4171V20.2947H87.1828C86.9839 20.6925 86.6963 21.1151 86.3198 21.5625C85.9434 22.0028 85.4463 22.3793 84.8284 22.6918C84.2105 23.0043 83.4328 23.1605 82.4953 23.1605ZM83.5713 19.9964C84.388 19.9964 85.084 19.7763 85.6593 19.3359C86.2346 18.8885 86.6714 18.267 86.9697 17.4716C87.268 16.6761 87.4171 15.7493 87.4171 14.6911C87.4171 13.6328 87.268 12.7131 86.9697 11.9318C86.6785 11.1506 86.2453 10.5433 85.67 10.1101C85.1018 9.67685 84.4022 9.46023 83.5713 9.46023C82.7119 9.46023 81.9945 9.68395 81.4193 10.1314C80.844 10.5788 80.4107 11.1967 80.1195 11.9851C79.8284 12.7734 79.6828 13.6754 79.6828 14.6911C79.6828 15.7138 79.8284 16.6264 80.1195 17.429C80.4178 18.2244 80.8546 18.853 81.4299 19.3146C82.0123 19.7692 82.7261 19.9964 83.5713 19.9964Z" fill="white"/>
<path d="M94.1193 22.8729V6.50923H97.9758V22.8729H94.1193ZM96.0582 4.18679C95.4474 4.18679 94.9219 3.98438 94.4815 3.57955C94.0412 3.16761 93.821 2.674 93.821 2.09872C93.821 1.51633 94.0412 1.02273 94.4815 0.617897C94.9219 0.205966 95.4474 0 96.0582 0C96.6761 0 97.2017 0.205966 97.6349 0.617897C98.0753 1.02273 98.2954 1.51633 98.2954 2.09872C98.2954 2.674 98.0753 3.16761 97.6349 3.57955C97.2017 3.98438 96.6761 4.18679 96.0582 4.18679Z" fill="white"/>
<path d="M107.879 23.1925C106.281 23.1925 104.896 22.8409 103.725 22.1378C102.553 21.4347 101.644 20.451 100.997 19.1868C100.358 17.9226 100.038 16.4453 100.038 14.755C100.038 13.0646 100.358 11.5838 100.997 10.3125C101.644 9.04119 102.553 8.05398 103.725 7.35085C104.896 6.64773 106.281 6.29617 107.879 6.29617C109.477 6.29617 110.862 6.64773 112.034 7.35085C113.206 8.05398 114.112 9.04119 114.751 10.3125C115.397 11.5838 115.72 13.0646 115.72 14.755C115.72 16.4453 115.397 17.9226 114.751 19.1868C114.112 20.451 113.206 21.4347 112.034 22.1378C110.862 22.8409 109.477 23.1925 107.879 23.1925ZM107.901 20.103C108.767 20.103 109.492 19.8651 110.074 19.3892C110.656 18.9062 111.09 18.2599 111.374 17.4503C111.665 16.6406 111.81 15.7386 111.81 14.7443C111.81 13.7429 111.665 12.8374 111.374 12.0277C111.09 11.2109 110.656 10.5611 110.074 10.0781C109.492 9.59517 108.767 9.35369 107.901 9.35369C107.013 9.35369 106.274 9.59517 105.685 10.0781C105.102 10.5611 104.666 11.2109 104.374 12.0277C104.09 12.8374 103.948 13.7429 103.948 14.7443C103.948 15.7386 104.09 16.6406 104.374 17.4503C104.666 18.2599 105.102 18.9062 105.685 19.3892C106.274 19.8651 107.013 20.103 107.901 20.103Z" fill="white"/>
<path d="M120.332 6.50923L123.634 12.5497L126.99 6.50923H131.07L126.138 14.6911L131.156 22.8729H127.097L123.634 16.9815L120.204 22.8729H116.113L121.099 14.6911L116.241 6.50923H120.332Z" fill="white"/>
<path d="M143.283 15.9908V6.50923H147.139V22.8729H143.4V19.9645H143.23C142.86 20.8807 142.253 21.63 141.408 22.2124C140.57 22.7947 139.537 23.0859 138.308 23.0859C137.235 23.0859 136.287 22.848 135.463 22.3722C134.647 21.8892 134.007 21.1896 133.546 20.2734C133.084 19.3501 132.853 18.2351 132.853 16.9283V6.50923H136.71V16.3317C136.71 17.3686 136.994 18.1925 137.562 18.8033C138.13 19.4141 138.876 19.7195 139.799 19.7195C140.367 19.7195 140.918 19.581 141.451 19.304C141.983 19.027 142.42 18.6151 142.761 18.0682C143.109 17.5142 143.283 16.8217 143.283 15.9908Z" fill="white"/>
<path d="M162.838 10.8345L159.323 11.218C159.223 10.8629 159.049 10.5291 158.801 10.2166C158.559 9.90412 158.233 9.65199 157.821 9.46023C157.409 9.26847 156.905 9.17258 156.308 9.17258C155.505 9.17258 154.831 9.34659 154.284 9.6946C153.744 10.0426 153.478 10.4936 153.485 11.0476C153.478 11.5234 153.652 11.9105 154.007 12.2088C154.369 12.5071 154.966 12.7521 155.797 12.9439L158.588 13.5405C160.136 13.8743 161.287 14.4034 162.039 15.1278C162.799 15.8523 163.183 16.8004 163.19 17.9723C163.183 19.0021 162.881 19.9112 162.284 20.6996C161.695 21.4808 160.875 22.0916 159.824 22.532C158.772 22.9723 157.565 23.1925 156.201 23.1925C154.199 23.1925 152.586 22.7734 151.365 21.9354C150.143 21.0902 149.415 19.9148 149.181 18.4091L152.941 18.0469C153.112 18.7855 153.474 19.343 154.028 19.7195C154.582 20.0959 155.303 20.2841 156.191 20.2841C157.107 20.2841 157.842 20.0959 158.396 19.7195C158.957 19.343 159.238 18.8778 159.238 18.3239C159.238 17.8551 159.057 17.468 158.694 17.1626C158.339 16.8572 157.785 16.6229 157.032 16.4595L154.241 15.8736C152.672 15.5469 151.51 14.9964 150.757 14.2223C150.005 13.4411 149.632 12.4538 149.639 11.2607C149.632 10.2521 149.905 9.37855 150.459 8.63992C151.02 7.89418 151.798 7.31889 152.792 6.91406C153.794 6.50213 154.948 6.29617 156.255 6.29617C158.172 6.29617 159.682 6.70455 160.782 7.52131C161.89 8.33807 162.576 9.44247 162.838 10.8345Z" fill="white"/>
</svg>
